<?xml version="1.0" encoding="UTF-8"?>
<svg version="1.1" xmlns="http://www.w3.org/2000/svg" width="2048" height="2048">
<path d="M0 0 C675.84 0 1351.68 0 2048 0 C2048 675.84 2048 1351.68 2048 2048 C1372.16 2048 696.32 2048 0 2048 C0 1372.16 0 696.32 0 0 Z " fill="#FDFEFE" transform="translate(0,0)"/>
<path d="M0 0 C1.13824219 -0.01224609 2.27648437 -0.02449219 3.44921875 -0.03710938 C38.65147025 -0.0970451 69.45540655 15.66435202 94.75 39.1875 C95.41773438 39.78949219 96.08546875 40.39148438 96.7734375 41.01171875 C118.66272918 61.60552174 132.57707316 93.54785701 133.84336805 123.38768792 C133.88000185 125.67054466 133.88767474 127.95150463 133.88307858 130.23464966 C133.8853216 131.10340847 133.88756463 131.97216728 133.88987562 132.86725211 C133.89617536 135.76844809 133.8954536 138.66959869 133.89476013 141.57080078 C133.89789603 143.67580291 133.90147133 145.78080442 133.90544754 147.88580513 C133.91512599 153.66289905 133.91869281 159.43998308 133.92129052 165.21708393 C133.92519033 171.45028975 133.93482721 177.68348688 133.94384766 183.91668701 C133.9587764 194.715758 133.97032975 205.51482701 133.97979546 216.31390381 C133.99422552 232.65780684 134.01698615 249.00169256 134.04146057 265.34558323 C134.05124983 271.90711585 134.06077102 278.46864887 134.07029057 285.03018188 C134.07134933 285.75911635 134.0724081 286.48805082 134.07349895 287.23907422 C134.09863853 304.58190625 134.12114043 321.92474145 134.14282227 339.26757812 C134.1437727 340.02622509 134.14472314 340.78487206 134.14570238 341.56650832 C134.16785898 359.2701673 134.18873715 376.97382721 134.20739746 394.67749023 C134.20820121 395.4391612 134.20900496 396.20083216 134.20983307 396.98558407 C134.21388396 400.82643583 134.21792553 404.6672876 134.22196633 408.50813937 C134.22276532 409.26725563 134.22356431 410.02637189 134.22438752 410.80849168 C134.22599983 412.34069791 134.22761065 413.87290415 134.22921998 415.40511039 C134.25584999 440.71925323 134.28921297 466.03338026 134.32999813 491.34750437 C134.33574797 494.92207879 134.34140659 498.49665336 134.34700203 502.07122803 C134.34810383 502.77470946 134.34920564 503.4781909 134.35034083 504.20298995 C134.36784441 515.52329389 134.37801241 526.84359315 134.38525448 538.16390783 C134.39264612 549.53868773 134.40719977 560.91343613 134.42868023 572.2881999 C134.44008174 578.45024783 134.44820509 584.61225546 134.44767189 590.77431488 C134.44724451 596.41455373 134.45594594 602.05470188 134.47192169 607.69491744 C134.47607966 609.73584073 134.47686889 611.77677422 134.47395759 613.81769967 C134.47048581 616.5920243 134.47927598 619.36605462 134.49108028 622.14035034 C134.48714475 622.93235077 134.48320923 623.72435119 134.47915444 624.54035163 C134.54443811 633.16110737 136.49874977 640.60711654 140.4375 648.25 C140.79561768 648.94609375 141.15373535 649.6421875 141.52270508 650.359375 C147.96320244 662.52428341 157.43004022 669.90600024 170.50770569 674.29537964 C181.0664588 677.22984525 191.72414595 676.54651354 202.59155273 676.32080078 C204.98301305 676.28691873 207.37450538 676.25523562 209.76602173 676.22557068 C214.89244436 676.15987363 220.01856961 676.08375174 225.14474297 676.00091934 C233.26110233 675.87261633 241.37751486 675.80353241 249.49464417 675.74606323 C250.88214247 675.73598433 252.26964067 675.72589125 253.65713876 675.71578419 C256.46456436 675.69547949 259.27199178 675.67544905 262.07942021 675.65554023 C269.27214101 675.60422847 276.46482517 675.54927677 283.6574707 675.48828125 C284.37831964 675.48218979 285.09916859 675.47609832 285.84186143 675.46982227 C297.52684373 675.36856437 309.20940811 675.18710318 320.89293014 674.97987475 C332.92695512 674.76867358 344.95912109 674.65764232 356.99498326 674.63484752 C363.73945554 674.61899451 370.4767181 674.55610732 377.21896172 674.37558365 C419.44381523 673.3028107 419.44381523 673.3028107 427.42320633 679.72447968 C433.0623164 685.35877876 435.70691281 692.50201065 437.79887581 700.08044052 C439.16394155 704.53973248 441.44456712 708.14046832 444 712 C447.7449479 718.27483639 451.25155311 724.6766462 454.6875 731.125 C455.37924316 732.40370972 455.37924316 732.40370972 456.08496094 733.70825195 C458.69267643 738.66996711 460.64180241 743.50609875 462.12524414 748.91430664 C462.75459065 751.20420321 463.48270984 753.44049195 464.25 755.6875 C464.75 757.1875 465.25 758.6875 465.75 760.1875 C465.9975 760.909375 466.245 761.63125 466.5 762.375 C472.2452777 780.08960624 472.18557427 797.81559617 472.15731621 816.22191477 C472.15550441 820.00010969 472.17305367 823.77821189 472.18908691 827.55636597 C472.22665092 837.14173103 472.23968316 846.72707268 472.25 856.3125 C472.26114194 866.64815857 472.27696008 876.98369961 472.32071257 887.31927955 C472.33875503 891.77625577 472.34307677 896.23294106 472.33577728 900.68994451 C472.3342232 903.49575827 472.34523629 906.30143466 472.35915565 909.10721016 C472.36487472 910.96932194 472.35622119 912.83146202 472.34660339 914.69355774 C472.42761198 926.31368941 474.09758807 937.70226621 475.75 949.1875 C433.13337647 949.25632954 390.51675942 949.30911144 347.90009121 949.34069599 C342.85640837 949.34444762 337.81272564 949.34833064 332.76904297 949.35229492 C331.76503525 949.35308185 330.76102753 949.35386878 329.72659533 949.35467956 C313.51962803 949.36769494 297.31269301 949.3913272 281.10574479 949.41895839 C264.44697845 949.44712071 247.78822888 949.46369902 231.12943971 949.46976548 C220.86944305 949.4738596 210.60953766 949.48673867 200.34956913 949.5112494 C193.29158498 949.52724064 186.23364728 949.53187048 179.17564638 949.52800413 C175.11777906 949.52610314 171.06006998 949.5287888 167.0022316 949.54511642 C101.05031281 949.79685148 35.73390533 932.95065936 -17.25 892.1875 C-18.26835938 891.43339844 -19.28671875 890.67929688 -20.3359375 889.90234375 C-38.39421266 876.44790087 -55.59340412 860.07000055 -69.25 842.1875 C-70.28557209 840.86779367 -71.32210824 839.54884352 -72.359375 838.23046875 C-79.17188378 829.516956 -85.56188192 820.67924394 -91.25 811.1875 C-91.7126123 810.41954102 -92.17522461 809.65158203 -92.65185547 808.86035156 C-109.72757642 780.31005732 -122.24144547 748.9794112 -128.25 716.1875 C-128.51341586 714.79746484 -128.51341586 714.79746484 -128.78215325 713.37934816 C-133.47492766 687.59505896 -132.81802946 661.57867006 -132.75823963 635.47089303 C-132.74817312 629.33989306 -132.75714551 623.20894326 -132.76536357 617.07794545 C-132.78243112 603.79138881 -132.7770956 590.50491548 -132.76200638 577.21836071 C-132.74889506 565.59714222 -132.74377007 553.97595247 -132.74632454 542.35472679 C-132.74648495 541.58041946 -132.74664537 540.80611213 -132.74681065 540.00834094 C-132.74747434 536.86438958 -132.74817678 533.72043823 -132.74893599 530.57648689 C-132.75593921 501.16536878 -132.74053601 471.75430122 -132.71431253 442.34319597 C-132.69117704 416.25718317 -132.68582085 390.17122583 -132.69604492 364.08520508 C-132.6986473 357.39704802 -132.70123241 350.70889096 -132.70364285 344.02073383 C-132.70394029 343.197137 -132.70423774 342.37354016 -132.7045442 341.52498584 C-132.71216823 319.66718577 -132.7057393 297.8093902 -132.69494683 275.95159215 C-132.69379912 273.59844126 -132.69265594 271.24529037 -132.69152 268.89213947 C-132.69076477 267.33141056 -132.68999912 265.77068165 -132.68922299 264.20995275 C-132.68358115 252.59313768 -132.68488323 240.97633698 -132.68945122 229.35952187 C-132.69457197 216.15006147 -132.68864793 202.94065467 -132.66855692 189.73120759 C-132.65857856 182.99865524 -132.65354604 176.26620084 -132.66144943 169.533638 C-132.66854673 163.36138078 -132.66160753 157.18929852 -132.6438458 151.01706424 C-132.63982767 148.79422237 -132.64075639 146.57136434 -132.64736467 144.34852866 C-132.75530467 104.6154305 -121.7799984 67.78592732 -93.4375 39 C-75.77288489 21.60749706 -54.10431766 9.71119461 -30.25 3.1875 C-29.50234375 2.97351563 -28.7546875 2.75953125 -27.984375 2.5390625 C-18.7758336 0.0375296 -9.47003185 0.00529052 0 0 Z " fill="#033E85" transform="translate(596.25,495.8125)"/>
<path d="M0 0 C0.92941406 0.21527344 1.85882812 0.43054688 2.81640625 0.65234375 C36.23024148 9.30262597 64.9699277 33.03745296 82.35888672 62.28564453 C84.82857164 66.51305664 87.23788096 70.77286487 89.6328125 75.04296875 C93.49553844 81.91665801 97.49980215 88.70590102 101.5 95.5 C107.03074256 104.90353007 112.50470344 114.33639857 117.89892578 123.8190918 C121.64364502 130.39589202 125.46503426 136.92434795 129.3125 143.44140625 C137.56423313 157.42246773 145.714743 171.46113293 153.74829102 185.56860352 C156.730453 190.79868118 159.74870876 196.00485458 162.8125 201.1875 C168.96943507 211.6040366 174.99319373 222.09727616 181.03125 232.58300781 C182.97706866 235.96020003 184.92552291 239.33585596 186.875 242.7109375 C187.50680176 243.80494873 188.13860352 244.89895996 188.78955078 246.02612305 C190.05077181 248.20997901 191.31216393 250.39373618 192.57373047 252.57739258 C195.48516986 257.62166622 198.3865625 262.67100794 201.2578125 267.73828125 C206.18786157 276.43539745 211.20246023 285.03059691 216.5637207 293.46948242 C219.66954098 298.38760763 222.44615479 303.43195534 225.15234375 308.58203125 C227.35593014 312.65843313 229.6975125 316.64075755 232.0625 320.625 C235.33865414 326.14479369 238.51287783 331.69574515 241.54516602 337.35449219 C242.89432442 339.80783678 244.30783105 342.19989786 245.765625 344.58984375 C249.14507923 350.19515862 252.32590878 355.90164582 255.5 361.625 C260.8529939 371.23264441 266.32317108 380.7632547 271.88427734 390.25170898 C277.17445922 399.2806323 282.37248395 408.36011524 287.54980469 417.45410156 C289.46079262 420.80894705 291.37642776 424.16112427 293.29272461 427.51293945 C294.26812855 429.21944697 295.2428958 430.92631856 296.21704102 432.63354492 C298.77145482 437.10902295 301.3327209 441.58035037 303.90788269 446.04393005 C326.92948713 485.95496953 326.92948713 485.95496953 333 502 C333.47824219 503.19109375 333.95648437 504.3821875 334.44921875 505.609375 C340.05307337 519.74863177 343.51665824 534.35147635 346.75 549.1875 C346.96084229 550.12400391 347.17168457 551.06050781 347.38891602 552.02539062 C350.41546385 566.40986891 350.15011933 581.21900846 350.14526367 595.85205078 C350.14826417 597.68388944 350.15166871 599.51572747 350.15544128 601.3475647 C350.16419014 606.27302342 350.16661537 611.19846471 350.16725707 616.12393045 C350.16797223 619.21032672 350.17011518 622.29671867 350.17275429 625.38311386 C350.18197411 636.1754967 350.18609299 646.96786726 350.18530273 657.76025391 C350.18470129 667.78278055 350.19527483 677.80525349 350.2110464 687.82776654 C350.2241566 696.47027719 350.22948525 705.11277035 350.22884732 713.75529087 C350.22859357 718.90087652 350.23137727 724.04641425 350.24202538 729.1919899 C350.25176647 734.02992825 350.25174469 738.86777338 350.24450874 743.70571518 C350.24347068 745.4704375 350.24577894 747.23516582 350.2518692 748.99987793 C350.38317922 789.71565631 335.11641588 823.80218351 307 853 C296.11729537 863.9412138 282.70574797 871.70565182 268.80029297 878.16113281 C267.22273992 878.89621178 265.65891852 879.66061349 264.09765625 880.4296875 C235.14136542 893.80691224 198.94210264 893.21107102 169.20507812 882.82910156 C151.16248963 876.04515221 136.31628932 865.74895191 122 853 C121.27167969 852.35675781 120.54335937 851.71351563 119.79296875 851.05078125 C98.98762894 831.51664346 86.30538139 802.7328882 82 775 C81.83315893 773.98827225 81.66631786 772.97654449 81.49442101 771.93415833 C80.1862121 763.56527495 79.71590345 755.4620154 79.74462891 747 C79.74186884 745.6641875 79.73818287 744.32837665 79.73365784 742.99256897 C79.72562957 740.14501722 79.72335606 737.29754358 79.72560501 734.44998169 C79.72847754 729.92289021 79.71393936 725.39594986 79.69662476 720.86889648 C79.64997523 708.00523132 79.62569365 695.14157823 79.61914062 682.27783203 C79.61535699 675.15051971 79.597069 668.02338092 79.56404626 660.89614296 C79.54735912 657.14412828 79.53786087 653.39242867 79.54698563 649.64038086 C79.59184357 629.41695311 78.69873599 610.24349877 72 591 C71.58962316 589.71485217 71.18271373 588.42858501 70.78125 587.140625 C65.98093957 572.33272733 58.58930353 558.84046208 50.54492188 545.5612793 C47.81149543 541.02961419 45.16159068 536.44909725 42.5 531.875 C41.26435185 529.75388939 40.0286739 527.63279615 38.79296875 525.51171875 C37.85203369 523.89595947 37.85203369 523.89595947 36.89208984 522.24755859 C35.05082592 519.08723696 33.20750226 515.92812802 31.36328125 512.76953125 C25.65880187 502.99879398 19.96905605 493.22027804 14.31689453 483.41918945 C11.00538162 477.69490035 7.63081023 472.00967936 4.24536133 466.32885742 C3.55934927 465.17760634 2.87339594 464.02632026 2.1875 462.875 C1.84592865 462.30165924 1.5043573 461.72831848 1.1524353 461.13760376 C-4.32049562 451.9399923 -9.58982242 442.6404456 -14.77832031 433.27929688 C-19.48730424 424.82289125 -24.44063605 416.53002418 -29.45410156 408.25146484 C-34.26694346 400.28231157 -38.88544573 392.21784966 -43.43994141 384.09887695 C-47.32710608 377.17257998 -51.31011536 370.31131411 -55.35546875 363.4765625 C-58.51134465 358.14442949 -61.63009742 352.79073569 -64.75 347.4375 C-65.64041992 345.90984009 -65.64041992 345.90984009 -66.54882812 344.35131836 C-67.76257559 342.26890529 -68.97627973 340.18646697 -70.18994141 338.10400391 C-71.95178479 335.08268252 -73.71573478 332.06260251 -75.48046875 329.04296875 C-84.70083704 313.26212923 -93.83971656 297.43506125 -102.95996094 281.59619141 C-110.08807016 269.21830219 -117.23462394 256.85372117 -124.49462891 244.55273438 C-145.17515798 209.48370875 -145.17515798 209.48370875 -152 197 C-152.70962891 195.74123047 -152.70962891 195.74123047 -153.43359375 194.45703125 C-168.2229883 166.95152176 -171.7931623 130.03133253 -164 100 C-163.80132324 99.21222168 -163.60264648 98.42444336 -163.39794922 97.61279297 C-160.30455496 85.64008274 -156.11577282 74.74297945 -150 64 C-149.62359375 63.32984863 -149.2471875 62.65969727 -148.859375 61.96923828 C-143.39848241 52.37399493 -137.15674977 44.2193555 -129.37695312 36.39599609 C-128.14747446 35.149514 -126.9538546 33.8678951 -125.765625 32.58203125 C-106.69351366 12.3268754 -80.96192929 1.75597484 -54 -3 C-52.97777344 -3.18304687 -51.95554687 -3.36609375 -50.90234375 -3.5546875 C-33.70831279 -5.51676911 -16.70214447 -4.3399273 0 0 Z " fill="#FD9F03" transform="translate(988,661)"/>
<path d="M0 0 C4.79595427 3.85639597 9.23922795 8.0781475 13.66992188 12.34277344 C14.63478516 13.21289062 14.63478516 13.21289062 15.61914062 14.10058594 C28.62894402 26.17028699 37.96040609 43.829097 43.66992188 60.34277344 C43.94320313 61.08527344 44.21648437 61.82777344 44.49804688 62.59277344 C46.22659857 67.44742925 47.52011778 72.41548966 48.79492188 77.40527344 C48.96580322 78.0663208 49.13668457 78.72736816 49.31274414 79.40844727 C49.47444092 80.05837646 49.6361377 80.70830566 49.80273438 81.37792969 C50.01760498 82.23463257 50.01760498 82.23463257 50.23681641 83.10864258 C51.4129748 89.175737 51.82784452 95.15280015 51.83789062 101.32324219 C51.84121902 102.05795242 51.84454742 102.79266266 51.84797668 103.54963684 C51.85300429 105.09501528 51.85538631 106.64040441 51.85522461 108.18579102 C51.85740024 110.50718839 51.8755707 112.82810108 51.89453125 115.14941406 C52.03439237 151.19771537 34.68047453 179.76644705 17.02734375 210.01464844 C14.81641527 213.80662937 12.61849614 217.60612095 10.41992188 221.40527344 C9.97285889 222.17685791 9.5257959 222.94844238 9.06518555 223.7434082 C6.43707769 228.28103292 3.81744383 232.82340984 1.20507812 237.37011719 C-5.21177879 248.53116634 -11.68103401 259.65589129 -18.26757812 270.71777344 C-24.44999333 281.10456204 -30.49073808 291.56293694 -36.46826172 302.06835938 C-41.29103977 310.54204614 -46.17860072 318.97566132 -51.10302734 327.390625 C-55.45843695 334.83685048 -59.77549012 342.30456683 -64.08007812 349.78027344 C-68.54046533 357.52368675 -73.01991499 365.25423435 -77.5625 372.94970703 C-81.08814322 378.92339303 -84.58643408 384.91282296 -88.08007812 390.90527344 C-88.67530273 391.92613037 -89.27052734 392.9469873 -89.88378906 393.9987793 C-92.27271376 398.09660029 -94.66106568 402.19475493 -97.04931641 406.29296875 C-104.32180931 418.77149975 -111.61037956 431.24042396 -118.91848755 443.69812012 C-123.81864658 452.05132445 -128.70583438 460.4119089 -133.58007812 468.78027344 C-138.49957354 477.22484947 -143.45662139 485.64634824 -148.43652344 494.05541992 C-152.42849389 500.80199507 -156.38541547 507.5684452 -160.33007812 514.34277344 C-166.9490672 525.70459607 -173.61434841 537.0378684 -180.33007812 548.34277344 C-181.32515381 550.02089111 -181.32515381 550.02089111 -182.34033203 551.73291016 C-184.07660273 554.66005284 -185.81726858 557.58454435 -187.56082153 560.50735474 C-188.5662228 562.19452275 -189.56817044 563.88374727 -190.57006836 565.57299805 C-191.17665283 566.5875708 -191.7832373 567.60214355 -192.40820312 568.64746094 C-193.2188623 570.00846924 -193.2188623 570.00846924 -194.04589844 571.39697266 C-194.68156738 572.36014404 -194.68156738 572.36014404 -195.33007812 573.34277344 C-195.66007812 573.34277344 -195.99007813 573.34277344 -196.33007812 573.34277344 C-196.33265625 572.52421875 -196.33523438 571.70566406 -196.33789062 570.86230469 C-196.99873943 549.95745429 -202.32232478 528.98008617 -209.33007812 509.34277344 C-209.57226074 508.64941895 -209.81444336 507.95606445 -210.06396484 507.24169922 C-218.73608469 482.5345575 -231.94148985 459.91209403 -245.13378906 437.39160156 C-246.86432425 434.42779517 -248.56706405 431.44892157 -250.26757812 428.46777344 C-250.90308594 427.35402344 -251.53859375 426.24027344 -252.19335938 425.09277344 C-253.33385745 423.09186138 -254.47362714 421.0905381 -255.61279297 419.08886719 C-261.44180287 408.84854807 -267.3139786 398.63623769 -273.26757812 388.46777344 C-278.56459901 379.42071421 -283.76832308 370.32538652 -288.89233398 361.17919922 C-291.8494553 355.91172161 -294.89397348 350.70997058 -298.01757812 345.53955078 C-299.52837826 343.01087153 -300.94739226 340.44353971 -302.33007812 337.84277344 C-304.67677304 333.49591628 -307.15823598 329.25878024 -309.71679688 325.03417969 C-315.57185537 315.26629761 -321.0493641 305.28267909 -326.47338867 295.27099609 C-326.91593994 294.45937012 -327.35849121 293.64774414 -327.81445312 292.81152344 C-328.44770508 291.6475 -328.44770508 291.6475 -329.09375 290.45996094 C-330.4161272 288.09864846 -330.4161272 288.09864846 -332.72070312 285.18652344 C-334.33007812 282.34277344 -334.33007812 282.34277344 -334.43945312 279.12792969 C-332.89777217 273.86775771 -330.35208838 269.48700285 -327.58007812 264.78027344 C-326.99734131 263.77085693 -326.41460449 262.76144043 -325.81420898 261.72143555 C-323.99938871 258.58727826 -322.1675242 255.46371145 -320.33007812 252.34277344 C-319.78174316 251.40852539 -319.2334082 250.47427734 -318.66845703 249.51171875 C-316.00362223 244.97572592 -313.32556812 240.44776007 -310.63867188 235.92480469 C-298.42910625 215.35808313 -286.5249046 194.60914571 -274.61132812 173.87011719 C-268.19579671 162.71204829 -261.72271512 151.59194205 -255.14257812 140.53027344 C-249.93165477 131.76988054 -244.79482615 122.97463724 -239.76025391 114.11181641 C-235.48139438 106.58454012 -231.12157157 99.10611408 -226.74926758 91.6328125 C-223.06238005 85.32625458 -219.40465869 79.00386332 -215.76757812 72.66845703 C-191.13423969 29.79746726 -191.13423969 29.79746726 -181.33007812 18.34277344 C-180.11964844 16.90804687 -180.11964844 16.90804687 -178.88476562 15.44433594 C-133.45805003 -36.53294053 -53.91513272 -41.66735979 0 0 Z " fill="#0460C7" transform="translate(1533.330078125,664.6572265625)"/>
<path d="M0 0 C80.85 0 161.7 0 245 0 C245.99 2.475 245.99 2.475 247 5 C245.02 4.01 245.02 4.01 243 3 C243 2.34 243 1.68 243 1 C162.81 1 82.62 1 0 1 C0 0.67 0 0.34 0 0 Z " fill="#023877" transform="translate(775,1173)"/>
<path d="M0 0 C0.66 0 1.32 0 2 0 C2 0.99 2 1.98 2 3 C2.99 3.33 3.98 3.66 5 4 C5 4.99 5 5.98 5 7 C5.66 7.33 6.32 7.66 7 8 C6.67 8.66 6.34 9.32 6 10 C6.99 10.33 7.98 10.66 9 11 C10.1875 14.0625 10.1875 14.0625 11 17 C11.66 17 12.32 17 13 17 C13 18.32 13 19.64 13 21 C13.66 21.33 14.32 21.66 15 22 C15 22.66 15 23.32 15 24 C15.66 24.33 16.32 24.66 17 25 C17.66666667 27 18.33333333 29 19 31 C19.66 31.33 20.32 31.66 21 32 C21.625 35.0625 21.625 35.0625 22 38 C22.66 38 23.32 38 24 38 C26.10865385 41.47307692 26.10865385 41.47307692 25.55859375 44.140625 C25.37425781 44.75421875 25.18992187 45.3678125 25 46 C19.98882788 37.33974291 14.9897689 28.67260169 10 20 C9.47937988 19.09668945 8.95875977 18.19337891 8.42236328 17.26269531 C7.15114934 15.05317246 5.8865099 12.84007321 4.625 10.625 C4.262854 9.99722656 3.90070801 9.36945313 3.52758789 8.72265625 C1.90810206 5.86205791 0.56188875 3.25895476 0 0 Z " fill="#144481" transform="translate(1278,1082)"/>
<path d="M0 0 C0.99 0.33 1.98 0.66 3 1 C3 1.66 3 2.32 3 3 C3.66 3 4.32 3 5 3 C5 3.99 5 4.98 5 6 C5.66 6.33 6.32 6.66 7 7 C8.1875 9.4375 8.1875 9.4375 9 12 C8.67 12.66 8.34 13.32 8 14 C8.99 13.67 9.98 13.34 11 13 C11 13.99 11 14.98 11 16 C11.66 16.66 12.32 17.32 13 18 C12.67 18.66 12.34 19.32 12 20 C12.99 20.33 13.98 20.66 15 21 C14.67 21.99 14.34 22.98 14 24 C14.99 24.33 15.98 24.66 17 25 C17.33 26.98 17.66 28.96 18 31 C18.99 31 19.98 31 21 31 C24.22265625 37.703125 24.22265625 37.703125 23 42 C16.79834294 31.26095869 16.79834294 31.26095869 13.92749023 26.27929688 C13.5871022 25.68864441 13.24671417 25.09799194 12.89601135 24.48944092 C12.21339829 23.30492651 11.53081156 22.12039691 10.84825134 20.93585205 C8.98014429 17.6952576 7.10550684 14.45861002 5.22265625 11.2265625 C4.50260199 9.98437626 3.78254965 8.74218891 3.0625 7.5 C2.45535156 6.4584375 1.84820313 5.416875 1.22265625 4.34375 C0 2 0 2 0 0 Z " fill="#174889" transform="translate(1248,1030)"/>
<path d="M0 0 C28.38 0 56.76 0 86 0 C86.99 2.475 86.99 2.475 88 5 C86.68 4.34 85.36 3.68 84 3 C84 2.34 84 1.68 84 1 C56.28 1 28.56 1 0 1 C0 0.67 0 0.34 0 0 Z " fill="#01336D" transform="translate(934,1173)"/>
<path d="M0 0 C3 1 3 1 5 4 C5 4.66 5 5.32 5 6 C5.66 6.66 6.32 7.32 7 8 C6.67 8.66 6.34 9.32 6 10 C6.99 10.33 7.98 10.66 9 11 C8.67 11.99 8.34 12.98 8 14 C8.99 14.33 9.98 14.66 11 15 C11 15.99 11 16.98 11 18 C11.66 18.33 12.32 18.66 13 19 C13 20.32 13 21.64 13 23 C13.66 23 14.32 23 15 23 C15.66 25.64 16.32 28.28 17 31 C16.34 31.33 15.68 31.66 15 32 C14.77795898 31.47720459 14.55591797 30.95440918 14.32714844 30.41577148 C11.17062644 23.13522641 7.46429354 16.18965017 3.71484375 9.20117188 C3.23660156 8.30076172 2.75835938 7.40035156 2.265625 6.47265625 C1.83024414 5.66062744 1.39486328 4.84859863 0.94628906 4.01196289 C0 2 0 2 0 0 Z " fill="#133F7A" transform="translate(1304,1128)"/>
<path d="M0 0 C0.66 0.33 1.32 0.66 2 1 C-4.33333333 7.33333333 -10.66666667 13.66666667 -17 20 C-17.99 19.67 -18.98 19.34 -20 19 C-14.20157322 11.64126928 -7.21206534 5.89979481 0 0 Z " fill="#1E78D5" transform="translate(1374,662)"/>
<path d="M0 0 C0.99 0.33 1.98 0.66 3 1 C3.87890625 3.14453125 3.87890625 3.14453125 4.5625 5.8125 C5.23030334 8.36675347 5.84157618 10.68315236 7.0234375 13.046875 C8.08846186 15.17692372 8.58225014 17.10889355 9.0625 19.4375 C9.30806641 20.60925781 9.30806641 20.60925781 9.55859375 21.8046875 C9.77708984 22.89136719 9.77708984 22.89136719 10 24 C10.20625 25.010625 10.4125 26.02125 10.625 27.0625 C10.74875 27.701875 10.8725 28.34125 11 29 C10.34 29 9.68 29 9 29 C8.68546875 28.04480469 8.3709375 27.08960938 8.046875 26.10546875 C7.61495014 24.79935781 7.18263059 23.49337735 6.75 22.1875 C6.52546143 21.50913086 6.30092285 20.83076172 6.06958008 20.13183594 C4.3933913 15.10030709 2.59768612 10.12439857 0.69921875 5.171875 C0 3 0 3 0 0 Z " fill="#133D72" transform="translate(1320,1160)"/>
<path d="M0 0 C0.66 0.33 1.32 0.66 2 1 C0.96552734 2.12535156 0.96552734 2.12535156 -0.08984375 3.2734375 C-6.09800753 9.81530234 -12.07259911 16.3847279 -18 23 C-18.66 22.67 -19.32 22.34 -20 22 C-13.79989155 14.08529366 -7.22245937 6.97946074 0 0 Z " fill="#19406B" transform="translate(509,529)"/>
<path d="M0 0 C0.33 1.32 0.66 2.64 1 4 C1.66 4 2.32 4 3 4 C3.79953138 7.28696233 4.09658936 8.71023192 3 12 C3.99 12 4.98 12 6 12 C5.35499066 15.48305042 3.95865224 18.06202164 2 21 C1.67 21 1.34 21 1 21 C0.67 14.07 0.34 7.14 0 0 Z " fill="#163967" transform="translate(1336,1217)"/>
<path d="M0 0 C0.33 0 0.66 0 1 0 C2.19190363 8.34332544 2.09283549 16.59323022 2 25 C1.34 25 0.68 25 0 25 C-1.86666667 5.6 -1.86666667 5.6 0 0 Z " fill="#033478" transform="translate(1065,1275)"/>
<path d="M0 0 C0.66 0 1.32 0 2 0 C2 0.66 2 1.32 2 2 C2.99 2.33 3.98 2.66 5 3 C4.67 3.99 4.34 4.98 4 6 C4.99 6.33 5.98 6.66 7 7 C7.9375 8.6875 7.9375 8.6875 9 11 C10.31542376 13.01182457 11.6459068 15.01399663 13 17 C12.34 17.99 11.68 18.98 11 20 C9.16318536 16.85618694 7.3311356 13.70962371 5.5 10.5625 C4.97535156 9.66466797 4.45070313 8.76683594 3.91015625 7.84179688 C3.16572266 6.56079102 3.16572266 6.56079102 2.40625 5.25390625 C1.94541016 4.46314697 1.48457031 3.6723877 1.00976562 2.85766602 C0 1 0 1 0 0 Z " fill="#1A4C8E" transform="translate(1236,1010)"/>
<path d="M0 0 C0.66 0 1.32 0 2 0 C2 0.66 2 1.32 2 2 C2.99 2.33 3.98 2.66 5 3 C4.67 3.99 4.34 4.98 4 6 C4.66 6 5.32 6 6 6 C6 7.32 6 8.64 6 10 C6.99 9.67 7.98 9.34 9 9 C9.103125 9.7425 9.20625 10.485 9.3125 11.25 C10.04253504 14.17014018 11.06789398 15.73187554 13 18 C12.34 18.99 11.68 19.98 11 21 C10.45730469 20.04738281 9.91460938 19.09476563 9.35546875 18.11328125 C8.63284161 16.84633756 7.91018373 15.57941141 7.1875 14.3125 C6.83107422 13.68666016 6.47464844 13.06082031 6.10742188 12.41601562 C5.75615234 11.80048828 5.40488281 11.18496094 5.04296875 10.55078125 C4.52549072 9.64320068 4.52549072 9.64320068 3.99755859 8.71728516 C3.10670309 7.1836881 2.17509419 5.67393189 1.23828125 4.16796875 C0 2 0 2 0 0 Z " fill="#20518D" transform="translate(1218,978)"/>
<path d="M0 0 C2.10288089 3.15432133 2.93852446 5.75105616 4 9.375 C4.94227741 12.57727089 5.86956078 15.68543739 7.1484375 18.76953125 C8.12528891 21.32816499 7.93628203 22.47203852 7 25 C3.98656045 21.67148232 3.55332456 19.18117187 3.3125 14.75 C3.24675781 13.67234375 3.18101563 12.5946875 3.11328125 11.484375 C3.07589844 10.66453125 3.03851562 9.8446875 3 9 C2.01 9 1.02 9 0 9 C0 6.03 0 3.06 0 0 Z " fill="#1D3965" transform="translate(1056,1240)"/>
<path d="M0 0 C7.92 0 15.84 0 24 0 C24.66 1.65 25.32 3.3 26 5 C24.68 4.34 23.36 3.68 22 3 C22 2.34 22 1.68 22 1 C14.74 1 7.48 1 0 1 C0 0.67 0 0.34 0 0 Z " fill="#103769" transform="translate(996,1173)"/>
<path d="M0 0 C0.33 0 0.66 0 1 0 C2.32388229 6.43028541 3.24794402 12.4294834 3 19 C2.67 19 2.34 19 2 19 C2 17.35 2 15.7 2 14 C1.34 14 0.68 14 0 14 C0 9.38 0 4.76 0 0 Z " fill="#B98C2A" transform="translate(1334,1211)"/>
<path d="M0 0 C0.66 0 1.32 0 2 0 C2.05416188 1.60379341 2.09286638 3.20811406 2.125 4.8125 C2.14820313 5.70582031 2.17140625 6.59914063 2.1953125 7.51953125 C2 10 2 10 0 13 C-1.28571429 4.57142857 -1.28571429 4.57142857 0 0 Z " fill="#2D7EDE" transform="translate(1582,793)"/>
<path d="M0 0 C0.99 0 1.98 0 3 0 C3.33 1.98 3.66 3.96 4 6 C4.99 6.33 5.98 6.66 7 7 C6.67 7.99 6.34 8.98 6 10 C2.51668565 6.98112756 1.20842856 4.43090471 0 0 Z " fill="#174688" transform="translate(1272,1072)"/>
<path d="M0 0 C0.99 0.33 1.98 0.66 3 1 C0.36 3.97 -2.28 6.94 -5 10 C-5.66 9.67 -6.32 9.34 -7 9 C-4.69 6.03 -2.38 3.06 0 0 Z " fill="#234974" transform="translate(496,542)"/>
<path d="M0 0 C1.75099539 2.62649308 2.69309325 4.61808587 3.6875 7.5625 C3.95949219 8.34753906 4.23148438 9.13257813 4.51171875 9.94140625 C5 12 5 12 4 14 C3.67 12.35 3.34 10.7 3 9 C2.01 9 1.02 9 0 9 C0 6.03 0 3.06 0 0 Z " fill="#243D5D" transform="translate(1056,1240)"/>
<path d="M0 0 C0.99 0.33 1.98 0.66 3 1 C3 1.66 3 2.32 3 3 C3.66 3 4.32 3 5 3 C5 3.99 5 4.98 5 6 C5.66 6.33 6.32 6.66 7 7 C6.67 7.66 6.34 8.32 6 9 C0.42857143 3.85714286 0.42857143 3.85714286 0 0 Z " fill="#104892" transform="translate(1248,1030)"/>
<path d="M0 0 C0.66 0.99 1.32 1.98 2 3 C0.1875 6 0.1875 6 -2 9 C-2.99 9 -3.98 9 -5 9 C-3.35 6.03 -1.7 3.06 0 0 Z " fill="#1B69BD" transform="translate(1234,881)"/>
<path d="M0 0 C2.47524576 2.90572328 3.69670231 5.15822926 4 9 C3.34 9.66 2.68 10.32 2 11 C-0.32590854 7.36576791 -0.16265833 4.22911669 0 0 Z " fill="#09397D" transform="translate(1324,1167)"/>
<path d="M0 0 C0.33 0.99 0.66 1.98 1 3 C-0.40445835 5.2636564 -2.1967913 7.0208685 -4 9 C-4.66 8.67 -5.32 8.34 -6 8 C-4.02 5.36 -2.04 2.72 0 0 Z " fill="#F4B42B" transform="translate(851,706)"/>
<path d="M0 0 C0.99 0 1.98 0 3 0 C3 0.99 3 1.98 3 3 C3.66 3 4.32 3 5 3 C4.67 4.32 4.34 5.64 4 7 C2 6 2 6 0.875 2.9375 C0.58625 1.968125 0.2975 0.99875 0 0 Z " fill="#124998" transform="translate(1232,1002)"/>
<path d="M0 0 C0.66 0 1.32 0 2 0 C1.34 1.98 0.68 3.96 0 6 C0.99 6 1.98 6 3 6 C2.34 7.32 1.68 8.64 1 10 C-1.56687367 6.1496895 -0.83288724 4.41430237 0 0 Z " fill="#175199" transform="translate(1200,940)"/>
<path d="M0 0 C0.99 0 1.98 0 3 0 C3 0.66 3 1.32 3 2 C3.66 2.33 4.32 2.66 5 3 C4.34 4.32 3.68 5.64 3 7 C0 2.25 0 2.25 0 0 Z " fill="#184E9C" transform="translate(1208,960)"/>
</svg>
